<svg width="97" height="164" viewBox="0 0 97 164" fill="none" xmlns="http://www.w3.org/2000/svg">
<g clip-path="url(#clip0_135_80)">
<mask id="mask0_135_80" style="mask-type:luminance" maskUnits="userSpaceOnUse" x="0" y="0" width="97" height="164">
<path d="M97 0H0V164H97V0Z" fill="white"/>
</mask>
<g mask="url(#mask0_135_80)">
<path d="M28.27 47.9199H48.25C53.11 47.9199 59.52 47.9199 62.83 49.9299C66.46 52.0899 69.31 56.0199 69.31 61.4299C69.31 67.2899 66.23 71.6899 61.13 73.7699V73.9299C67.92 75.3199 71.62 80.4099 71.62 87.1999C71.62 95.2999 65.83 103.02 54.88 103.02H28.27V47.9199ZM35.6 71.5999H50.27C58.6 71.5999 62 68.5899 62 62.7999C62 55.1599 56.6 54.0799 50.27 54.0799H35.6V71.5999ZM35.6 96.8299H53.97C60.29 96.8299 64.31 92.9699 64.31 86.9599C64.31 79.7799 58.52 77.7799 52.35 77.7799H35.6V96.8299Z" fill="black"/>
<path d="M90.3699 75.4802C90.3699 98.6202 71.6099 117.38 48.4599 117.38C25.3199 117.38 6.55996 98.6202 6.55996 75.4802C6.55996 52.3402 25.3199 33.5802 48.4599 33.5802C71.6099 33.5902 90.3699 52.3502 90.3699 75.4802ZM48.4699 27.2002C21.8199 27.2002 0.209961 48.8102 0.209961 75.4602C0.209961 102.11 21.8199 123.72 48.4699 123.72C75.1299 123.72 96.7399 102.11 96.7399 75.4602C96.7399 48.8102 75.1299 27.2002 48.4699 27.2002Z" fill="black"/>
<path d="M96.6298 133.91H0.299805V140.24H96.6298V133.91Z" fill="black"/>
<path d="M93.62 126.94C93.74 126.94 93.85 126.93 93.96 126.93C94.06 126.92 94.16 126.9 94.24 126.87C94.33 126.83 94.39 126.77 94.44 126.7C94.49 126.62 94.51 126.52 94.51 126.39C94.51 126.28 94.49 126.18 94.45 126.12C94.41 126.05 94.35 126 94.28 125.97C94.21 125.93 94.14 125.91 94.04 125.89C93.95 125.88 93.87 125.88 93.77 125.88H93.08V126.95H93.62V126.94ZM93.85 125.44C94.25 125.44 94.54 125.52 94.74 125.68C94.93 125.84 95.03 126.08 95.03 126.41C95.03 126.72 94.94 126.93 94.78 127.08C94.61 127.22 94.4 127.3 94.14 127.33L95.1 128.81H94.54L93.62 127.36H93.07V128.81H92.54V125.45H93.85V125.44ZM91.49 128.09C91.6 128.39 91.77 128.66 91.99 128.88C92.2 129.1 92.45 129.27 92.74 129.4C93.02 129.52 93.34 129.58 93.67 129.58C94.01 129.58 94.32 129.52 94.6 129.4C94.89 129.27 95.14 129.1 95.35 128.88C95.56 128.66 95.73 128.4 95.84 128.09C95.96 127.79 96.03 127.47 96.03 127.12C96.03 126.77 95.97 126.45 95.84 126.15C95.72 125.85 95.55 125.59 95.35 125.37C95.13 125.15 94.88 124.98 94.6 124.86C94.32 124.74 94 124.67 93.67 124.67C93.34 124.67 93.02 124.74 92.74 124.86C92.45 124.99 92.19 125.16 91.99 125.37C91.77 125.59 91.61 125.85 91.49 126.15C91.37 126.45 91.31 126.76 91.31 127.12C91.3 127.46 91.36 127.79 91.49 128.09ZM91.01 125.98C91.16 125.63 91.37 125.34 91.63 125.08C91.89 124.82 92.2 124.63 92.55 124.48C92.9 124.33 93.28 124.26 93.66 124.26C94.06 124.26 94.43 124.33 94.79 124.48C95.13 124.63 95.44 124.82 95.69 125.08C95.95 125.34 96.17 125.64 96.31 125.98C96.47 126.33 96.54 126.71 96.54 127.12C96.54 127.53 96.47 127.91 96.31 128.26C96.16 128.62 95.95 128.92 95.69 129.18C95.43 129.45 95.13 129.64 94.79 129.79C94.43 129.93 94.06 130 93.66 130C93.27 130 92.9 129.93 92.55 129.79C92.2 129.64 91.89 129.45 91.63 129.18C91.37 128.92 91.16 128.62 91.01 128.26C90.85 127.91 90.79 127.53 90.79 127.12C90.78 126.71 90.85 126.33 91.01 125.98Z" fill="black"/>
<path d="M11.9803 5.97992C11.7503 5.60992 11.4703 5.28992 11.1303 5.01992C10.7903 4.73992 10.4003 4.52992 9.97029 4.36992C9.54029 4.21992 9.09029 4.13992 8.62029 4.13992C7.76029 4.13992 7.03029 4.30992 6.42029 4.63992C5.82029 4.96992 5.33029 5.41992 4.96029 5.97992C4.59029 6.53992 4.31029 7.17992 4.14029 7.89992C3.97029 8.61992 3.88029 9.35992 3.88029 10.1199C3.88029 10.8499 3.96029 11.5599 4.14029 12.2499C4.31029 12.9399 4.58029 13.5599 4.96029 14.1199C5.33029 14.6699 5.82029 15.1199 6.42029 15.4499C7.02029 15.7799 7.75029 15.9499 8.62029 15.9499C9.79029 15.9499 10.7103 15.5899 11.3603 14.8799C12.0203 14.1599 12.4203 13.2199 12.5703 12.0499H16.2803C16.1803 13.1399 15.9303 14.1199 15.5203 14.9999C15.1103 15.8799 14.5803 16.6299 13.9103 17.2399C13.2403 17.8599 12.4603 18.3299 11.5703 18.6599C10.6803 18.9799 9.69029 19.1499 8.62029 19.1499C7.29029 19.1499 6.09029 18.9199 5.02029 18.4499C3.95029 17.9899 3.06029 17.3499 2.32029 16.5299C1.59029 15.7199 1.03029 14.7599 0.640293 13.6599C0.250293 12.5599 0.050293 11.3799 0.050293 10.1099C0.050293 8.80992 0.240293 7.59992 0.640293 6.48992C1.03029 5.37992 1.59029 4.39992 2.32029 3.57992C3.05029 2.74992 3.95029 2.09992 5.02029 1.62992C6.08029 1.15992 7.28029 0.919922 8.62029 0.919922C9.58029 0.919922 10.4903 1.05992 11.3403 1.32992C12.1903 1.60992 12.9603 2.00992 13.6303 2.53992C14.3003 3.06992 14.8603 3.71992 15.3003 4.49992C15.7403 5.27992 16.0203 6.17992 16.1303 7.17992H12.4203C12.3503 6.73992 12.2103 6.33992 11.9803 5.97992Z" fill="black"/>
<path d="M21.2702 15.7203C21.7902 16.2203 22.5402 16.4803 23.5102 16.4803C24.2102 16.4803 24.8102 16.3103 25.3202 15.9603C25.8202 15.6103 26.1302 15.2403 26.2502 14.8503H29.3002C28.8102 16.3603 28.0602 17.4503 27.0502 18.1003C26.0402 18.7503 24.8202 19.0803 23.3902 19.0803C22.4002 19.0803 21.5002 18.9203 20.7102 18.6003C19.9102 18.2803 19.2402 17.8303 18.6802 17.2503C18.1302 16.6703 17.7002 15.9703 17.4002 15.1503C17.1002 14.3403 16.9502 13.4403 16.9502 12.4703C16.9502 11.5303 17.1002 10.6503 17.4102 9.84031C17.7202 9.03031 18.1602 8.32031 18.7302 7.73031C19.3002 7.14031 19.9802 6.67031 20.7702 6.33031C21.5602 5.99031 22.4302 5.82031 23.3902 5.82031C24.4602 5.82031 25.4002 6.03031 26.2002 6.44031C27.0002 6.86031 27.6502 7.41031 28.1602 8.11031C28.6702 8.81031 29.0402 9.61031 29.2702 10.5003C29.5002 11.3903 29.5802 12.3303 29.5102 13.3103H20.4102C20.4602 14.4003 20.7402 15.2203 21.2702 15.7203ZM25.1802 9.09031C24.7602 8.64031 24.1302 8.41031 23.2902 8.41031C22.7402 8.41031 22.2802 8.50031 21.9102 8.69031C21.5402 8.88031 21.2502 9.11031 21.0302 9.38031C20.8102 9.66031 20.6602 9.95031 20.5702 10.2603C20.4802 10.5703 20.4302 10.8403 20.4102 11.0903H26.0502C25.8902 10.2103 25.6002 9.54031 25.1802 9.09031Z" fill="black"/>
<path d="M34.3698 6.13004V8.47004H34.4198C34.5798 8.08004 34.7998 7.72004 35.0798 7.38004C35.3598 7.05004 35.6698 6.76004 36.0298 6.53004C36.3898 6.30004 36.7698 6.11004 37.1798 5.98004C37.5898 5.85004 38.0098 5.79004 38.4498 5.79004C38.6798 5.79004 38.9298 5.83004 39.2098 5.91004V9.13004C39.0498 9.10004 38.8498 9.07004 38.6198 9.05004C38.3898 9.03004 38.1698 9.01004 37.9598 9.01004C37.3298 9.01004 36.7898 9.12004 36.3498 9.33004C35.9098 9.54004 35.5598 9.83004 35.2898 10.2C35.0198 10.57 34.8298 10.99 34.7198 11.48C34.6098 11.97 34.5498 12.5 34.5498 13.07V18.76H31.0898V6.13004H34.3698Z" fill="black"/>
<path d="M48.4701 6.13035V8.45035H45.9301V14.7004C45.9301 15.2904 46.0301 15.6803 46.2201 15.8703C46.4101 16.0603 46.8101 16.1604 47.3901 16.1604C47.5901 16.1604 47.7701 16.1504 47.9501 16.1404C48.1301 16.1204 48.3001 16.1004 48.4601 16.0704V18.7504C48.1701 18.8004 47.8401 18.8303 47.4801 18.8503C47.1201 18.8703 46.7701 18.8804 46.4301 18.8804C45.8901 18.8804 45.3801 18.8404 44.9101 18.7704C44.4301 18.7004 44.0101 18.5604 43.6401 18.3404C43.2701 18.1304 42.9901 17.8303 42.7701 17.4403C42.5601 17.0503 42.4501 16.5404 42.4501 15.9004V8.46035H40.3501V6.14035H42.4501V2.36035H45.9101V6.14035H48.4701V6.13035Z" fill="black"/>
<path d="M50.4902 4.18031V1.32031H53.9502V4.18031H50.4902ZM53.9502 6.13031V18.7403H50.4902V6.13031H53.9502Z" fill="black"/>
<path d="M55.3301 8.45031V6.13031H57.4001V5.15031C57.4001 4.03031 57.7501 3.11031 58.4501 2.39031C59.1501 1.67031 60.2101 1.32031 61.6201 1.32031C61.9301 1.32031 62.2401 1.33031 62.5501 1.36031C62.8601 1.38031 63.1601 1.41031 63.4501 1.42031V4.01031C63.0401 3.96031 62.6201 3.94031 62.1801 3.94031C61.7101 3.94031 61.3701 4.05031 61.1701 4.27031C60.9701 4.49031 60.8701 4.86031 60.8701 5.38031V6.14031H63.2601V8.46031H60.8701V18.7603H57.4001V8.46031H55.3301V8.45031Z" fill="black"/>
<path d="M65.6001 4.18031V1.32031H69.0601V4.18031H65.6001ZM69.0701 6.13031V18.7403H65.6001V6.13031H69.0701Z" fill="black"/>
<path d="M74.5302 15.7198C75.0502 16.2198 75.8002 16.4798 76.7702 16.4798C77.4702 16.4798 78.0702 16.3098 78.5802 15.9598C79.0802 15.6098 79.3902 15.2398 79.5102 14.8498H82.5602C82.0702 16.3598 81.3202 17.4498 80.3202 18.0998C79.3102 18.7498 78.0902 19.0798 76.6602 19.0798C75.6702 19.0798 74.7702 18.9198 73.9802 18.5998C73.1802 18.2798 72.5102 17.8298 71.9502 17.2498C71.4002 16.6698 70.9702 15.9698 70.6702 15.1498C70.3702 14.3398 70.2202 13.4398 70.2202 12.4698C70.2202 11.5298 70.3802 10.6498 70.6802 9.83981C70.9902 8.99981 71.4302 8.2998 72.0002 7.7098C72.5702 7.1198 73.2502 6.6498 74.0402 6.3098C74.8302 5.9698 75.7002 5.7998 76.6602 5.7998C77.7302 5.7998 78.6702 6.00981 79.4702 6.41981C80.2702 6.83981 80.9202 7.38981 81.4302 8.08981C81.9402 8.78981 82.3102 9.58981 82.5402 10.4798C82.7702 11.3698 82.8502 12.3098 82.7902 13.2898H73.6902C73.7302 14.3998 74.0102 15.2198 74.5302 15.7198ZM78.4502 9.08981C78.0402 8.63981 77.4002 8.40981 76.5602 8.40981C76.0102 8.40981 75.5502 8.49981 75.1802 8.68981C74.8102 8.87981 74.5202 9.1098 74.3002 9.3798C74.0802 9.6598 73.9302 9.94981 73.8402 10.2598C73.7502 10.5698 73.7002 10.8398 73.6802 11.0898H79.3102C79.1502 10.2098 78.8602 9.53981 78.4502 9.08981Z" fill="black"/>
<path d="M93.3001 17.1401C92.8901 17.8201 92.3601 18.3201 91.7001 18.6201C91.0401 18.9201 90.3001 19.0701 89.4701 19.0701C88.5301 19.0701 87.7001 18.8901 86.9801 18.5201C86.2601 18.1501 85.6701 17.6601 85.2101 17.0301C84.7501 16.4001 84.4001 15.6801 84.1601 14.8701C83.9201 14.0601 83.8101 13.2101 83.8101 12.3301C83.8101 11.4801 83.9301 10.6701 84.1601 9.88008C84.3901 9.09008 84.7501 8.40008 85.2101 7.79008C85.6701 7.19008 86.2601 6.70008 86.9501 6.34008C87.6501 5.97008 88.4601 5.79008 89.3901 5.79008C90.1401 5.79008 90.8501 5.95008 91.5201 6.27008C92.2001 6.59008 92.7301 7.05008 93.1201 7.67008H93.1701V1.33008H96.6301V18.7501H93.3401V17.1401H93.3001ZM93.1501 10.9001C93.0501 10.4201 92.8901 10.0001 92.6501 9.63008C92.4101 9.26008 92.1101 8.97008 91.7301 8.74008C91.3601 8.51008 90.8801 8.40008 90.3201 8.40008C89.7601 8.40008 89.2701 8.51008 88.8801 8.74008C88.4901 8.97008 88.1801 9.27008 87.9401 9.64008C87.7101 10.0101 87.5401 10.4401 87.4301 10.9201C87.3201 11.4001 87.2701 11.9001 87.2701 12.4201C87.2701 12.9101 87.3301 13.4001 87.4401 13.8801C87.5501 14.3701 87.7401 14.8001 87.9901 15.1901C88.2401 15.5701 88.5601 15.8801 88.9401 16.1201C89.3201 16.3601 89.7801 16.4701 90.3201 16.4701C90.8901 16.4701 91.3601 16.3601 91.7501 16.1301C92.1301 15.9001 92.4401 15.6001 92.6701 15.2101C92.9001 14.8301 93.0601 14.3901 93.1601 13.9101C93.2601 13.4201 93.3101 12.9201 93.3101 12.4001C93.3001 11.8801 93.2501 11.3801 93.1501 10.9001Z" fill="black"/>
<path d="M8.75004 152.67C8.58004 151.45 7.41004 150.52 6.07004 150.52C3.65004 150.52 2.74004 152.58 2.74004 154.73C2.74004 156.77 3.65004 158.83 6.07004 158.83C7.72004 158.83 8.65004 157.7 8.85004 156.08H11.47C11.19 159.14 9.08004 161.1 6.07004 161.1C2.27004 161.1 0.0400391 158.26 0.0400391 154.73C0.0400391 151.09 2.27004 148.25 6.07004 148.25C8.77004 148.25 11.03 149.83 11.36 152.67H8.75004Z" fill="black"/>
<path d="M17.1003 151.69C19.9003 151.69 21.7003 153.54 21.7003 156.38C21.7003 159.2 19.9003 161.05 17.1003 161.05C14.3203 161.05 12.5103 159.19 12.5103 156.38C12.5103 153.55 14.3203 151.69 17.1003 151.69ZM17.1003 159.22C18.7703 159.22 19.2603 157.79 19.2603 156.39C19.2603 154.96 18.7603 153.54 17.1003 153.54C15.4503 153.54 14.9503 154.97 14.9503 156.39C14.9503 157.79 15.4503 159.22 17.1003 159.22Z" fill="black"/>
<path d="M23.21 151.92H25.53V153.57H25.57C26.01 152.45 27.22 151.68 28.41 151.68C28.58 151.68 28.79 151.71 28.94 151.76V154.03C28.71 153.98 28.35 153.95 28.06 153.95C26.27 153.95 25.65 155.24 25.65 156.8V160.8H23.21V151.92Z" fill="black"/>
<path d="M29.8899 151.93H32.2099V153.06H32.2399C32.8199 152.12 33.7799 151.69 34.8799 151.69C37.6699 151.69 38.9199 153.94 38.9199 156.46C38.9199 158.83 37.6199 161.05 35.0199 161.05C33.9599 161.05 32.9399 160.59 32.3599 159.71H32.3199V163.94H29.8799V151.93H29.8899ZM36.4799 156.4C36.4799 154.99 35.9099 153.53 34.3499 153.53C32.7499 153.53 32.2399 154.96 32.2399 156.4C32.2399 157.84 32.7899 159.22 34.3699 159.22C35.9699 159.22 36.4799 157.84 36.4799 156.4Z" fill="black"/>
<path d="M44.2699 151.69C47.0699 151.69 48.8799 153.54 48.8799 156.38C48.8799 159.2 47.0699 161.05 44.2699 161.05C41.4899 161.05 39.6899 159.19 39.6899 156.38C39.6899 153.55 41.4899 151.69 44.2699 151.69ZM44.2699 159.22C45.9399 159.22 46.4399 157.79 46.4399 156.39C46.4399 154.96 45.9399 153.54 44.2699 153.54C42.6199 153.54 42.1199 154.97 42.1199 156.39C42.1299 157.79 42.6299 159.22 44.2699 159.22Z" fill="black"/>
<path d="M50.3899 151.92H52.7099V153.57H52.7499C53.1899 152.45 54.3999 151.68 55.5799 151.68C55.7499 151.68 55.9599 151.71 56.1099 151.76V154.03C55.8899 153.98 55.5299 153.95 55.2299 153.95C53.4399 153.95 52.8199 155.24 52.8199 156.8V160.8H50.3799V151.92H50.3899Z" fill="black"/>
<path d="M56.8301 154.66C56.9701 152.37 59.0101 151.69 61.0101 151.69C62.7801 151.69 64.9101 152.08 64.9101 154.21V158.83C64.9101 159.64 64.9901 160.44 65.2201 160.81H62.7401C62.6601 160.53 62.5801 160.24 62.5701 159.95C61.8001 160.76 60.6701 161.05 59.5801 161.05C57.9001 161.05 56.5601 160.21 56.5601 158.39C56.5601 156.38 58.0701 155.9 59.5801 155.69C61.0801 155.47 62.4701 155.52 62.4701 154.52C62.4701 153.47 61.7401 153.32 60.8901 153.32C59.9601 153.32 59.3601 153.7 59.2701 154.66H56.8301ZM62.4601 156.47C62.0401 156.83 61.1901 156.85 60.4301 156.99C59.6701 157.14 58.9901 157.4 58.9901 158.3C58.9901 159.21 59.6901 159.43 60.4901 159.43C62.3901 159.43 62.4701 157.92 62.4701 157.39V156.47H62.4601Z" fill="black"/>
<path d="M69.8302 151.93H71.6202V153.56H69.8302V157.96C69.8302 158.79 70.0402 158.99 70.8602 158.99C71.1202 158.99 71.3602 158.97 71.6202 158.92V160.83C71.2102 160.9 70.6702 160.92 70.1902 160.92C68.7002 160.92 67.3902 160.57 67.3902 158.81V153.57H65.9102V151.94H67.3902V149.28H69.8302V151.93Z" fill="black"/>
<path d="M75.9 150.56H73.46V148.55H75.9V150.56ZM73.46 151.93H75.9V160.81H73.46V151.93Z" fill="black"/>
<path d="M82.12 151.69C84.92 151.69 86.73 153.54 86.73 156.38C86.73 159.2 84.92 161.05 82.12 161.05C79.34 161.05 77.54 159.19 77.54 156.38C77.54 153.55 79.34 151.69 82.12 151.69ZM82.12 159.22C83.79 159.22 84.29 157.79 84.29 156.39C84.29 154.96 83.79 153.54 82.12 153.54C80.47 153.54 79.97 154.97 79.97 156.39C79.97 157.79 80.47 159.22 82.12 159.22Z" fill="black"/>
<path d="M88.2998 151.93H90.6198V153.17H90.6698C91.2898 152.17 92.3498 151.69 93.3898 151.69C95.9798 151.69 96.6398 153.15 96.6398 155.35V160.81H94.1998V155.79C94.1998 154.33 93.7698 153.61 92.6398 153.61C91.3098 153.61 90.7498 154.35 90.7498 156.16V160.82H88.3098V151.93H88.2998Z" fill="black"/>
</g>
</g>
<defs>
<clipPath id="clip0_135_80">
<rect width="97" height="164" fill="white"/>
</clipPath>
</defs>
</svg>
