<svg width="30" height="31" viewBox="0 0 31 27" fill="none" xmlns="http://www.w3.org/2000/svg">
<path d="M30.8125 8.85156C30.8125 18.4219 16.6225 26.1684 16.0182 26.4883C15.8589 26.574 15.6809 26.6188 15.5 26.6188C15.3191 26.6188 15.1411 26.574 14.9818 26.4883C14.3775 26.1684 0.1875 18.4219 0.1875 8.85156C0.190033 6.60422 1.08391 4.44964 2.67303 2.86053C4.26214 1.27141 6.41672 0.377533 8.66406 0.375C11.4873 0.375 13.9592 1.58906 15.5 3.64121C17.0408 1.58906 19.5127 0.375 22.3359 0.375C24.5833 0.377533 26.7379 1.27141 28.327 2.86053C29.9161 4.44964 30.81 6.60422 30.8125 8.85156Z" fill="black"/>
</svg>
