<svg width="30" height="31" viewBox="0 0 30 31" fill="none" xmlns="http://www.w3.org/2000/svg">
<path d="M20.8594 4.25C18.4395 4.25 16.3207 5.29062 15 7.04961C13.6793 5.29062 11.5605 4.25 9.14062 4.25C7.21433 4.25217 5.36755 5.01835 4.00545 6.38045C2.64335 7.74255 1.87717 9.58933 1.875 11.5156C1.875 19.7188 14.0379 26.3586 14.5559 26.6328C14.6924 26.7063 14.845 26.7447 15 26.7447C15.155 26.7447 15.3076 26.7063 15.4441 26.6328C15.9621 26.3586 28.125 19.7188 28.125 11.5156C28.1228 9.58933 27.3566 7.74255 25.9946 6.38045C24.6325 5.01835 22.7857 4.25217 20.8594 4.25ZM15 24.7344C12.8602 23.4875 3.75 17.8074 3.75 11.5156C3.75186 10.0865 4.3204 8.71647 5.33093 7.70593C6.34147 6.6954 7.71151 6.12686 9.14062 6.125C11.4199 6.125 13.3336 7.33906 14.1328 9.28906C14.2034 9.46101 14.3236 9.60808 14.478 9.71158C14.6324 9.81508 14.8141 9.87034 15 9.87034C15.1859 9.87034 15.3676 9.81508 15.522 9.71158C15.6764 9.60808 15.7966 9.46101 15.8672 9.28906C16.6664 7.33555 18.5801 6.125 20.8594 6.125C22.2885 6.12686 23.6585 6.6954 24.6691 7.70593C25.6796 8.71647 26.2481 10.0865 26.25 11.5156C26.25 17.798 17.1375 23.4863 15 24.7344Z" fill="black"/>
</svg>
