<?xml version="1.0" standalone="no"?>
<!DOCTYPE svg PUBLIC "-//W3C//DTD SVG 20010904//EN"
 "http://www.w3.org/TR/2001/REC-SVG-20010904/DTD/svg10.dtd">
<svg version="1.0" xmlns="http://www.w3.org/2000/svg"
width='80' height='80'   viewBox="0 0 494.000000 402.000000"
 preserveAspectRatio="xMidYMid meet">

<g transform="translate(0.000000,402.000000) scale(0.100000,-0.100000)"
fill="#000000" stroke="none">
<path d="M2230 3764 c-58 -8 -166 -30 -240 -49 -183 -48 -426 -167 -583 -286
-486 -367 -752 -951 -707 -1550 24 -306 123 -592 296 -851 243 -366 620 -632
1039 -734 549 -133 1104 -11 1540 339 264 213 468 509 575 837 233 711 -20
1501 -625 1958 -159 120 -402 239 -585 287 -246 63 -482 80 -710 49z m345
-103 c278 -23 533 -104 750 -238 558 -345 855 -951 784 -1601 -68 -629 -504
-1170 -1109 -1375 -201 -69 -288 -82 -535 -82 -192 0 -233 3 -325 23 -213 47
-423 134 -601 252 -214 140 -438 393 -552 625 -81 164 -130 317 -158 490 -17
103 -17 407 0 510 38 236 129 470 256 660 283 421 750 694 1255 735 52 4 102
8 110 8 8 1 65 -2 125 -7z"/>
<path d="M2125 2631 c-59 -10 -115 -41 -149 -84 -26 -32 -31 -49 -34 -107 -6
-95 18 -141 116 -228 159 -141 199 -185 212 -230 14 -54 6 -93 -28 -134 -46
-54 -113 -70 -196 -47 -53 15 -93 57 -107 113 -6 25 -15 43 -20 40 -5 -3 -9
-43 -9 -89 l0 -83 40 -16 c61 -24 212 -22 270 5 117 53 170 164 135 284 -14
49 -28 69 -88 129 -40 39 -104 96 -143 127 -82 66 -109 111 -101 173 4 30 15
50 42 75 36 32 39 33 110 29 87 -4 125 -26 140 -81 13 -47 25 -57 25 -21 0 16
3 52 6 80 l6 51 -76 12 c-83 12 -90 12 -151 2z"/>
<path d="M2775 2631 c-124 -21 -196 -114 -182 -233 11 -89 49 -137 218 -274
53 -43 83 -76 99 -109 58 -120 -29 -236 -166 -222 -89 9 -141 54 -151 128 -3
21 -10 39 -14 39 -5 0 -9 -1 -9 -2 0 -2 -3 -40 -6 -84 -7 -81 -6 -82 21 -100
36 -24 195 -32 261 -14 167 47 228 244 119 386 -15 19 -77 75 -139 125 -148
117 -180 174 -141 249 26 50 61 70 126 70 96 0 153 -34 165 -97 11 -59 24 -35
24 46 l0 78 -69 12 c-75 12 -94 12 -156 2z"/>
<path d="M1650 1509 l0 -102 45 6 c72 8 105 49 69 88 -12 13 -13 22 -5 37 21
40 -14 72 -80 72 l-29 0 0 -101z m78 72 c25 -16 9 -46 -26 -49 -30 -3 -32 -1
-32 27 0 26 4 31 23 31 12 0 28 -4 35 -9z m10 -83 c29 -29 2 -68 -47 -68 -18
0 -21 6 -21 40 0 37 2 40 28 40 15 0 33 -5 40 -12z"/>
<path d="M1790 1605 c0 -3 14 -32 30 -65 17 -33 30 -75 30 -95 0 -22 4 -34 10
-30 6 3 10 22 10 41 0 19 11 57 25 84 26 51 31 70 17 70 -4 0 -18 -21 -31 -47
l-23 -48 -24 48 c-14 26 -29 47 -34 47 -6 0 -10 -2 -10 -5z"/>
<path d="M2015 1598 c-10 -24 -1 -178 10 -181 6 -1 11 15 13 36 3 33 6 37 30
37 59 0 97 67 57 100 -24 20 -103 26 -110 8z m86 -18 c40 -22 12 -70 -40 -70
-18 0 -21 6 -21 40 0 34 3 40 21 40 11 0 29 -5 40 -10z"/>
<path d="M2184 1597 c-3 -8 -4 -52 -2 -98 l3 -84 49 -3 c27 -2 54 2 59 7 8 8
-3 11 -36 11 l-47 0 0 40 c0 39 1 40 35 40 19 0 35 5 35 10 0 6 -16 10 -35 10
-32 0 -35 2 -35 30 0 28 2 30 40 30 22 0 40 5 40 10 0 16 -100 12 -106 -3z"/>
<path d="M2377 1603 c-14 -26 -58 -175 -54 -186 3 -6 11 3 18 21 12 28 18 32
50 32 32 0 38 -4 48 -31 16 -47 31 -26 16 23 -36 119 -63 167 -78 141z m33
-106 c-4 -5 -16 -7 -26 -5 -20 4 -21 21 -2 67 l11 26 12 -40 c7 -22 9 -44 5
-48z"/>
<path d="M2500 1516 c0 -53 4 -98 10 -101 6 -4 10 8 10 28 0 20 7 41 19 51 18
16 20 15 50 -34 43 -70 58 -53 17 17 l-34 57 26 33 c13 19 22 36 18 40 -6 6
-75 -66 -76 -79 0 -5 -4 -8 -10 -8 -5 0 -10 20 -10 45 0 25 -4 45 -10 45 -6 0
-10 -38 -10 -94z"/>
<path d="M2677 1592 c-32 -35 -17 -62 51 -96 17 -9 32 -23 32 -31 0 -23 -35
-36 -66 -25 -15 6 -29 8 -31 6 -11 -10 10 -26 43 -32 43 -8 74 16 74 58 0 24
-7 32 -45 50 -29 14 -45 28 -45 40 0 25 25 33 56 20 19 -9 24 -9 24 2 0 13
-29 26 -61 26 -9 0 -23 -8 -32 -18z"/>
<path d="M2847 1590 c-34 -27 -43 -76 -24 -123 18 -43 48 -61 88 -52 63 14 85
120 34 170 -29 30 -64 32 -98 5z m83 -20 c29 -29 27 -84 -5 -115 -29 -30 -39
-31 -65 -5 -29 29 -28 103 2 124 30 21 44 20 68 -4z"/>
<path d="M3020 1509 c0 -64 4 -98 10 -94 6 3 10 24 10 46 0 38 1 39 35 39 44
0 46 18 3 22 -29 3 -33 6 -33 33 0 28 3 30 43 33 61 5 52 22 -13 22 l-55 0 0
-101z"/>
<path d="M3150 1600 c0 -5 11 -10 25 -10 24 0 24 -2 27 -85 2 -48 7 -85 13
-85 6 0 11 37 13 85 3 83 3 85 27 85 14 0 25 5 25 10 0 6 -28 10 -65 10 -37 0
-65 -4 -65 -10z"/>
</g>
</svg>
