<svg width="22" height="23" viewBox="0 0 22 23" fill="none" xmlns="http://www.w3.org/2000/svg">
<path d="M1 19C1 17.6739 1.52678 16.4021 2.46447 15.4645C3.40215 14.5268 4.67392 14 6 14H16C17.3261 14 18.5979 14.5268 19.5355 15.4645C20.4732 16.4021 21 17.6739 21 19C21 19.663 20.7366 20.2989 20.2678 20.7678C19.7989 21.2366 19.163 21.5 18.5 21.5H3.5C2.83696 21.5 2.20107 21.2366 1.73223 20.7678C1.26339 20.2989 1 19.663 1 19Z" stroke="black" stroke-width="2" stroke-linejoin="round"/>
<path d="M11 9C13.0711 9 14.75 7.32107 14.75 5.25C14.75 3.17893 13.0711 1.5 11 1.5C8.92893 1.5 7.25 3.17893 7.25 5.25C7.25 7.32107 8.92893 9 11 9Z" stroke="black" stroke-width="2"/>
</svg>
