<svg width="157" height="62" viewBox="0 0 157 62" fill="none" xmlns="http://www.w3.org/2000/svg">
<g clip-path="url(#clip0_135_61)">
<path d="M156.923 0.5H0V60.5H156.923V0.5Z" fill="white"/>
<path d="M3.78643 13.2373V11.8535C3.78643 11.3346 3.78643 10.9886 3.78643 10.4697C3.78643 9.25883 3.95559 8.04799 4.29391 6.66418C4.63223 5.28036 5.1397 4.2425 6.15466 3.20463C6.83129 2.51272 7.50793 1.99379 8.35372 1.64784C9.19952 1.47486 10.3836 1.30188 12.0752 1.12891V1.47486C11.3985 1.64784 10.5527 1.99379 10.0453 2.33975C9.19952 2.51272 8.69204 3.03165 8.01541 3.72356C7.33877 4.41547 7.00045 5.45334 6.83129 6.66418C6.66213 7.87502 6.49297 9.25883 6.49297 11.1616V17.0428V20.1564C6.49297 21.1943 6.49297 22.2321 6.32382 23.27C6.32382 24.1349 6.15466 24.9998 5.9855 25.8646C5.81634 26.7295 5.47802 27.5944 4.97055 28.4593C4.63223 28.9782 4.12475 29.3242 3.78643 29.6701C3.44812 30.0161 2.77148 30.1891 2.264 30.362C3.1098 30.708 3.61727 31.0539 3.95559 31.2269C4.29391 31.3999 4.80139 31.9188 5.30886 32.6107C5.9855 33.6486 6.32382 34.6865 6.49297 35.7243C6.49297 36.9352 6.66213 37.973 6.66213 39.1839V41.0866V42.9894V49.5625V52.1572C6.66213 52.8491 6.83129 53.541 6.83129 54.2329C7.00045 54.7518 7.16961 55.4437 7.33877 55.7897C7.50793 56.1356 7.84625 56.6546 8.18456 57.1735C8.69204 57.8654 9.36868 58.3843 9.87615 58.5573C10.5527 58.9033 11.2294 59.0762 11.906 59.2492V59.5952C11.0602 59.5952 10.2144 59.4222 9.36868 59.2492C8.52288 59.0762 7.67709 58.7303 6.83129 58.0384C6.66213 57.8654 6.49298 57.6924 6.15466 57.5194C5.9855 57.3465 5.64718 57.0005 5.30886 56.6546C4.97054 56.1356 4.63223 55.4437 4.46307 54.7518C4.29391 54.0599 4.12475 53.368 3.95559 52.6761C3.95559 51.9842 3.78643 51.2923 3.78643 50.4274C3.78643 49.5625 3.78643 49.0436 3.78643 48.5246V40.7407C3.78643 38.492 3.61727 36.5892 3.61727 35.2054C3.61727 33.8216 2.94064 32.6107 2.09484 31.7459C1.75653 31.3999 1.41821 31.0539 1.07989 30.881C0.741577 30.708 0.572418 30.708 0.0649414 30.535V30.1891C0.741577 30.0161 1.24905 29.8431 1.75653 29.4972C2.264 29.1512 2.60232 28.8052 2.94064 27.9404C3.44812 27.2485 3.61727 26.3836 3.61727 25.1727C3.61727 23.9619 3.78643 22.5781 3.78643 20.8483V13.2373Z" fill="black"/>
<path d="M153.153 49.5628C153.153 51.8115 152.815 53.5412 152.477 54.7521C152.138 55.9629 151.462 57.0008 150.616 57.8657C149.77 58.7305 148.924 59.2495 147.91 59.4224C147.064 59.5954 146.049 59.7684 145.034 59.7684V59.4224C145.203 59.4224 145.372 59.2495 145.71 59.2495C146.049 59.0765 146.387 59.0765 146.725 58.9035C147.064 58.7305 147.571 58.5576 147.91 58.2116C148.248 57.8657 148.755 57.5197 149.094 57.0008C149.601 56.1359 149.939 55.271 150.109 54.0602C150.278 52.8493 150.278 51.4655 150.447 49.5628V43.6815V40.395C150.447 39.3571 150.447 38.1463 150.616 37.1084C150.616 36.2435 150.785 35.5516 150.954 34.6867C151.124 33.8218 151.293 33.1299 151.631 32.438C152.138 31.5731 152.815 31.0542 153.323 30.7082C153.999 30.3623 154.338 30.1893 154.676 30.1893C154.168 30.0163 153.661 29.8434 153.323 29.4974C152.984 29.1514 152.477 28.8055 151.969 28.2866C151.124 27.2487 150.785 26.2108 150.616 24.827C150.447 23.4432 150.447 22.2324 150.447 21.0215C150.447 20.3296 150.447 19.8107 150.447 19.2918V17.562V10.9889C150.447 9.08611 150.278 7.52931 150.109 6.31847C149.939 5.10763 149.432 4.24275 148.755 3.37786C148.248 2.68595 147.571 2.16702 147.064 1.99404C146.556 1.82107 145.71 1.47511 145.034 1.12916V0.783203C145.203 0.783203 145.541 0.783204 145.71 0.956181C145.88 1.12916 146.218 0.95618 146.556 1.12916C146.725 1.12916 147.064 1.30214 147.402 1.30214C147.74 1.47511 148.248 1.47511 148.755 1.64809C149.263 1.82107 149.77 2.16702 150.109 2.51297C150.447 2.85893 151.124 3.20488 151.462 3.89679C151.8 4.41572 152.138 4.93465 152.308 5.45358C152.477 5.97252 152.646 6.66443 152.815 7.35633C152.984 8.04824 152.984 8.74015 153.153 9.60503C153.323 10.4699 153.153 11.3348 153.153 12.5456V20.1566V22.9243C153.153 23.7892 153.153 24.4811 153.323 25.173C153.492 25.8649 153.492 26.3838 153.661 26.9027C153.83 27.4217 154.168 27.9406 154.507 28.4595C154.845 28.8055 155.014 29.1514 155.353 29.3244C155.691 29.4974 156.198 29.8434 156.875 30.1893V30.7082C156.367 30.8812 155.86 31.0542 155.353 31.4002C155.014 31.5731 154.507 31.9191 154.168 32.611C153.83 32.9569 153.661 33.4759 153.661 33.8218C153.492 34.1678 153.492 34.5137 153.492 34.6867C153.323 35.0327 153.323 35.5516 153.323 36.0705C153.323 36.5895 153.153 37.1084 153.153 37.6273V39.1841V40.5679V49.5628Z" fill="black"/>
<path d="M31.8665 43.509L37.2796 29.8438H39.817L32.0357 49.2172L24.2544 29.8438H26.7918L31.8665 43.509Z" fill="black"/>
<path d="M48.4441 29.8438H58.0861V31.9195H50.6431V37.1088H57.7478V39.3575H50.474V46.2766H57.917V48.3523H48.2749L48.4441 29.8438Z" fill="black"/>
<path d="M84.3059 39.0108V39.7027C84.3059 44.7191 80.7536 48.6975 75.8479 48.6975C70.9423 48.6975 66.7134 44.2001 66.7134 39.1838C66.7134 33.8215 70.9423 29.4971 76.0171 29.4971C78.8928 29.4971 81.5993 30.8809 83.2909 33.1296L81.7685 34.6864C80.4152 32.9566 78.3853 31.7458 76.1863 31.7458C72.1264 31.7458 69.0816 35.0323 69.0816 39.1838C69.0816 42.9893 72.1264 46.6218 76.0171 46.6218C78.8928 46.6218 81.7685 44.2001 81.9377 41.0865H77.2012V39.0108H84.3059Z" fill="black"/>
<path d="M96.3161 43.6814L94.2862 48.3518H91.918L100.545 29.1514L109.172 48.3518H106.804L104.774 43.6814H96.3161ZM100.376 34.1677L97.1619 41.6057H103.59L100.376 34.1677Z" fill="black"/>
<path d="M117.461 28.9785L130.994 43.5086V29.8434H133.193V49.0439L119.66 34.5138V48.179H117.461V28.9785Z" fill="black"/>
<path d="M27.8065 13.4109H25.9458L24.085 20.6759H25.6074L26.2841 18.2543C27.299 18.2543 29.6672 18.4272 30.0056 15.6596C30.3439 13.2379 27.8065 13.4109 27.8065 13.4109ZM27.9757 16.5245C27.4682 17.0434 26.6224 16.8704 26.6224 16.8704L26.7915 16.0056L27.1299 14.9677H28.1448C28.4831 15.1407 28.314 16.1785 27.9757 16.5245ZM41.6775 13.4109L38.2943 20.6759H39.9859L40.4934 19.4651H42.0158V20.6759H43.5383V13.4109H41.6775ZM42.185 18.0813H41.1701L42.0158 16.0056L42.185 18.0813ZM34.2345 13.5839C32.8813 13.065 31.6972 14.2758 31.0205 15.1407C30.1747 16.1785 29.8364 17.3894 29.6672 18.7732C29.6672 19.6381 29.8364 20.503 30.6822 20.8489C32.0355 21.1949 32.8813 19.984 33.5579 19.1191C33.5579 18.9462 33.7271 18.9462 33.7271 18.7732H33.5579C33.3887 18.9462 33.2196 19.1192 33.0504 19.4651C32.5429 19.984 32.0355 20.33 31.3588 20.157C30.6822 19.8111 30.6822 18.9462 30.6822 18.2543C30.6822 17.9083 30.6822 17.7353 30.8514 17.3894L31.3588 17.2164C32.3738 16.8704 33.7271 16.8704 34.4037 15.6596C34.5729 15.3137 34.9112 14.6217 34.5729 14.1028C34.742 13.7569 34.4037 13.5839 34.2345 13.5839ZM32.3738 16.5245C30.8514 17.0434 31.3588 16.8704 31.3588 16.8704C31.3588 16.8704 32.5429 13.4109 33.5579 13.9298C34.742 14.1028 33.8962 16.0056 32.3738 16.5245ZM39.9859 15.1407L40.3243 13.5839H35.5878L35.2495 15.1407H36.6028L35.0803 20.8489H36.7719L38.2943 15.1407H39.9859Z" fill="black"/>
<path d="M48.7827 17.2158H50.9817V18.2537H48.7827V17.2158Z" fill="black"/>
<path d="M57.4096 19.2914L56.9021 20.8482H55.5488L58.2554 13.4102H59.2703L61.9769 20.8482H60.4544L59.947 19.2914H57.4096ZM58.5937 15.4859L57.7479 18.0805H59.4395L58.5937 15.4859Z" fill="black"/>
<path d="M68.4051 20.8489H67.0518V13.7568H68.9126C70.435 13.7568 71.2808 14.4487 71.2808 16.0055C71.2808 17.5623 70.435 18.2542 69.0817 18.2542H68.4051V20.8489ZM68.4051 16.8704H68.7434C69.5892 16.8704 69.9275 16.6974 69.9275 15.8326C69.9275 14.9677 69.4201 14.7947 68.5743 14.7947H68.4051V16.8704Z" fill="black"/>
<path d="M77.8777 20.8489H76.5244V13.7568H78.3852C79.9076 13.7568 80.7534 14.4487 80.7534 16.0055C80.7534 17.5623 79.9076 18.2542 78.5543 18.2542H77.8777V20.8489ZM77.8777 16.8704H78.216C79.0618 16.8704 79.4001 16.6974 79.4001 15.8326C79.4001 14.9677 78.8927 14.7947 78.0469 14.7947L77.8777 16.8704Z" fill="black"/>
<path d="M90.903 20.849H89.2114L87.5198 17.9084V20.849H86.1665V13.584H88.0273C89.3805 13.584 90.3955 14.2759 90.3955 15.6597C90.3955 16.5246 89.888 17.5625 89.0422 17.5625L90.903 20.849ZM87.5198 16.8705H87.689C88.5348 16.8705 89.0422 16.6976 89.0422 15.8327C89.0422 14.9678 88.5348 14.7948 87.689 14.7948H87.5198V16.8705Z" fill="black"/>
<path d="M99.1918 21.0211C96.9927 21.0211 95.8086 19.2914 95.8086 17.2157C95.8086 15.1399 97.1619 13.4102 99.1918 13.4102C101.222 13.4102 102.575 15.1399 102.575 17.2157C102.575 19.2914 101.222 21.0211 99.1918 21.0211ZM99.1918 14.794C97.8385 14.794 97.1619 16.0048 97.1619 17.2157C97.1619 18.2535 97.6693 19.6373 99.1918 19.6373C100.714 19.6373 101.222 18.2535 101.222 17.2157C101.222 16.0048 100.376 14.794 99.1918 14.794Z" fill="black"/>
<path d="M110.525 18.4273L112.048 13.584H113.57L110.864 21.022H110.018L107.311 13.584H108.834L110.525 18.4273Z" fill="black"/>
<path d="M119.998 14.7948V16.3516H122.197V17.5625H119.998V19.4652H122.197V20.676H118.476V13.584H122.197V14.7948H119.998Z" fill="black"/>
<path d="M127.78 13.584H129.81C131.839 13.584 133.193 15.1408 133.193 17.2165C133.193 19.2922 131.839 20.849 129.81 20.849H127.78V13.584ZM129.133 19.6382H129.302C130.994 19.6382 131.67 18.7733 131.67 17.2165C131.67 15.6597 130.825 14.7948 129.302 14.7948H129.133V19.6382Z" fill="black"/>
</g>
<defs>
<clipPath id="clip0_135_61">
<rect width="157" height="61" fill="white" transform="translate(0 0.5)"/>
</clipPath>
</defs>
</svg>
