<svg width="30" height="31" viewBox="0 0 30 31" fill="none" xmlns="http://www.w3.org/2000/svg">
<path d="M20 11.75C20 12.0815 19.8683 12.3995 19.6339 12.6339C19.3995 12.8683 19.0815 13 18.75 13C18.4185 13 18.1005 12.8683 17.8661 12.6339C17.6317 12.3995 17.5 12.0815 17.5 11.75C17.5 11.4185 17.6317 11.1005 17.8661 10.8661C18.1005 10.6317 18.4185 10.5 18.75 10.5C19.0815 10.5 19.3995 10.6317 19.6339 10.8661C19.8683 11.1005 20 11.4185 20 11.75ZM12.5 11.75C12.5 12.0815 12.3683 12.3995 12.1339 12.6339C11.8995 12.8683 11.5815 13 11.25 13C10.9185 13 10.6005 12.8683 10.3661 12.6339C10.1317 12.3995 10 12.0815 10 11.75C10 11.4185 10.1317 11.1005 10.3661 10.8661C10.6005 10.6317 10.9185 10.5 11.25 10.5C11.5815 10.5 11.8995 10.6317 12.1339 10.8661C12.3683 11.1005 12.5 11.4185 12.5 11.75Z" fill="black"/>
<path fill-rule="evenodd" clip-rule="evenodd" d="M15 3.9375C14.2541 3.9375 13.5387 4.23382 13.0112 4.76126C12.4838 5.28871 12.1875 6.00408 12.1875 6.75V7.0675C12.71 7.0625 13.2725 7.0625 13.8812 7.0625H16.1187C16.7275 7.0625 17.2912 7.0625 17.8125 7.0675V6.75C17.8125 6.00408 17.5162 5.28871 16.9887 4.76126C16.4613 4.23382 15.7459 3.9375 15 3.9375ZM19.6875 7.13375V6.75C19.6875 5.5068 19.1936 4.31451 18.3145 3.43544C17.4355 2.55636 16.2432 2.0625 15 2.0625C13.7568 2.0625 12.5645 2.55636 11.6854 3.43544C10.8063 4.31451 10.3125 5.5068 10.3125 6.75V7.13375C10.1437 7.14625 9.98123 7.16 9.82373 7.1775C8.72623 7.29625 7.80748 7.54375 6.99248 8.1025C6.712 8.29456 6.44853 8.51035 6.20498 8.7475C5.49748 9.4375 5.07373 10.29 4.74248 11.3425C4.42123 12.3663 4.16123 13.6663 3.83373 15.3L3.80998 15.4188C3.33998 17.7725 2.96873 19.6275 2.86248 21.105C2.75248 22.615 2.90498 23.8837 3.61998 24.985C3.85873 25.3525 4.13748 25.6913 4.44998 25.9975C5.38998 26.915 6.60498 27.3125 8.10623 27.5025C9.57623 27.6875 11.4687 27.6875 13.8687 27.6875H16.1312C18.5325 27.6875 20.4237 27.6875 21.8937 27.5025C23.395 27.3125 24.6112 26.915 25.55 25.9975C25.8631 25.6916 26.1415 25.3521 26.38 24.985C27.095 23.885 27.2475 22.615 27.1387 21.105C27.0312 19.6275 26.6612 17.7725 26.1887 15.4188L26.1662 15.3C25.84 13.6663 25.5787 12.3663 25.2575 11.3425C24.9262 10.29 24.5025 9.4375 23.795 8.7475C23.5514 8.51034 23.288 8.29455 23.0075 8.1025C22.1925 7.54375 21.2737 7.29625 20.1762 7.1775C20.014 7.16013 19.8515 7.14554 19.6887 7.13375H19.6875ZM10.025 9.04125C9.09123 9.14125 8.51498 9.3325 8.05248 9.64875C7.86054 9.78054 7.6803 9.92858 7.51373 10.0912C7.11248 10.4825 6.81373 11.01 6.53123 11.905C6.24373 12.8212 6.00123 14.0212 5.66248 15.72C5.17498 18.155 4.82873 19.895 4.73248 21.24C4.63623 22.5675 4.79748 23.3563 5.19248 23.9637C5.35498 24.2138 5.54623 24.4475 5.75998 24.6562C6.27873 25.1625 7.01998 25.475 8.34123 25.6425C9.67873 25.8113 11.4537 25.8125 13.9362 25.8125H16.065C18.5475 25.8125 20.32 25.8113 21.6587 25.6425C22.98 25.475 23.7212 25.1625 24.24 24.6562C24.4541 24.447 24.6444 24.2148 24.8075 23.9637C25.2025 23.3563 25.3637 22.5675 25.2687 21.2388C25.1712 19.8937 24.825 18.155 24.3387 15.72C23.9987 14.0212 23.7575 12.82 23.4687 11.905C23.1875 11.01 22.8875 10.4825 22.4862 10.0912C22.3201 9.92862 22.1402 9.78058 21.9487 9.64875C21.4862 9.3325 20.9087 9.1425 19.975 9.04125C19.0212 8.93875 17.7962 8.9375 16.0637 8.9375H13.9375C12.205 8.9375 10.98 8.93875 10.025 9.04125Z" fill="black"/>
</svg>
