<svg width="30" height="31" viewBox="0 0 30 31" fill="none" xmlns="http://www.w3.org/2000/svg">
<path d="M26.25 26.75L20.8213 21.3213M20.8213 21.3213C21.7499 20.3927 22.4865 19.2902 22.989 18.0769C23.4916 16.8637 23.7503 15.5633 23.7503 14.25C23.7503 12.9368 23.4916 11.6364 22.989 10.4231C22.4865 9.20979 21.7499 8.10737 20.8213 7.17876C19.8927 6.25015 18.7902 5.51354 17.5769 5.01098C16.3637 4.50842 15.0633 4.24976 13.75 4.24976C12.4368 4.24976 11.1364 4.50842 9.92308 5.01098C8.70979 5.51354 7.60737 6.25015 6.67876 7.17876C4.80335 9.05418 3.74976 11.5978 3.74976 14.25C3.74976 16.9022 4.80335 19.4459 6.67876 21.3213C8.55418 23.1967 11.0978 24.2503 13.75 24.2503C16.4022 24.2503 18.9459 23.1967 20.8213 21.3213Z" stroke="black" stroke-width="2" stroke-linecap="round" stroke-linejoin="round"/>
</svg>
